<svg width="32" height="32" fill="none" xmlns="http://www.w3.org/2000/svg"><circle cx="16" cy="16" r="16" fill="#08A979"/><path d="M21.21 12l-4.38-6.56a.993.993 0 00-.83-.42c-.32 0-.64.14-.83.43L10.79 12H6c-.55 0-1 .45-1 1 0 .09.01.18.04.27l2.54 9.27c.23.84 1 1.46 1.92 1.46h13c.92 0 1.69-.62 1.93-1.46l2.54-9.27L27 13c0-.55-.45-1-1-1h-4.79zM13 12l3-4.4 3 4.4h-6zm3 8c-1.1 0-2-.9-2-2s.9-2 2-2 2 .9 2 2-.9 2-2 2z" fill="#fff"/><circle cx="24" cy="22" r="4" fill="#08A979"/><path fill="#fff" d="M23.5 19.5h1v5h-1z"/><path fill="#fff" d="M26.5 21.5v1h-5v-1z"/></svg>