<svg width="14" height="12" fill="none" xmlns="http://www.w3.org/2000/svg"><path d="M12.09 3.454h-1.908V.91h-8.91A1.275 1.275 0 000 2.182v7h1.273c0 1.056.852 1.909 1.909 1.909a1.907 1.907 0 001.909-1.91h3.818c0 1.057.853 1.91 1.91 1.91a1.907 1.907 0 001.908-1.91H14V6l-1.91-2.546zm-8.908 6.682a.953.953 0 01-.955-.954.954.954 0 111.909 0 .953.953 0 01-.954.954zm8.59-5.727l1.248 1.59h-2.838V4.41h1.59zm-.954 5.727a.953.953 0 01-.954-.954.953.953 0 111.91 0 .953.953 0 01-.956.954z" fill="#fff"/></svg>