<svg width="23" height="21" fill="none" xmlns="http://www.w3.org/2000/svg"><path d="M16.947 7.723L12.367.465A1.02 1.02 0 0011.5 0c-.335 0-.67.155-.868.476L6.053 7.723H1.045C.47 7.723 0 8.22 0 8.829c0 .1.01.2.042.299l2.655 10.257C2.937 20.314 3.743 21 4.705 21h13.59c.962 0 1.767-.686 2.018-1.615L22.97 9.128l.03-.299c0-.608-.47-1.106-1.046-1.106h-5.007zm-8.583 0L11.5 2.855l3.136 4.868H8.364zm3.136 8.851c-1.15 0-2.09-.996-2.09-2.213s.94-2.212 2.09-2.212 2.09.995 2.09 2.212-.94 2.213-2.09 2.213z" fill="#58575C"/></svg>