<svg width="141" height="24" fill="none" xmlns="http://www.w3.org/2000/svg"><path d="M42.82 23.8V13.348c-.872.4-1.852.732-2.94.999-1.067.244-2.232.366-3.495.366-2.548 0-4.42-.555-5.618-1.664-1.198-1.132-1.797-2.919-1.797-5.36V.166h1.634V7.49c0 1.975.468 3.406 1.404 4.294.936.887 2.46 1.331 4.573 1.331 1.24 0 2.417-.122 3.527-.366 1.11-.266 2.015-.6 2.711-.999V.166h1.633V23.8H42.82zm6.129 0V.166h1.665V21.47L65.835.166h1.568V23.8h-1.666V2.83L50.68 23.8h-1.731zm21.357-11.983c0-1.42.24-2.83.719-4.228a12.54 12.54 0 012.155-3.794 10.7 10.7 0 013.43-2.73C77.982.377 79.539.033 81.28.033c2.07 0 3.833.488 5.292 1.465 1.46.954 2.548 2.186 3.266 3.695l-1.371.799c-.545-1.088-1.22-1.953-2.025-2.597a7.135 7.135 0 00-2.548-1.364 9.076 9.076 0 00-2.744-.433c-1.459 0-2.765.3-3.92.899a8.91 8.91 0 00-2.874 2.396 11.144 11.144 0 00-1.796 3.329 12.02 12.02 0 00-.588 3.695c0 1.398.24 2.73.719 3.994a11.985 11.985 0 001.96 3.362 9.954 9.954 0 002.939 2.33 8.202 8.202 0 003.658.832c.936 0 1.884-.155 2.842-.465a9.249 9.249 0 002.743-1.498c.85-.688 1.536-1.576 2.058-2.663l1.437.699a8.052 8.052 0 01-2.286 2.995c-.98.822-2.08 1.443-3.299 1.864a11.04 11.04 0 01-3.625.633c-1.568 0-3.016-.344-4.345-1.032a11.402 11.402 0 01-3.43-2.796 14.005 14.005 0 01-2.253-3.928 13.092 13.092 0 01-.784-4.427zm38.592-10.119h-8.492V23.8H98.74V1.698h-8.492V.166h18.65v1.532zm10.293 22.269c-1.612 0-3.081-.333-4.41-.999a11.192 11.192 0 01-3.429-2.73 12.608 12.608 0 01-2.221-3.828 12.894 12.894 0 01-.784-4.427c0-1.575.272-3.073.816-4.493a12.281 12.281 0 012.287-3.828 11.194 11.194 0 013.462-2.663C116.24.333 117.677 0 119.223 0c1.612 0 3.082.344 4.41 1.032a10.975 10.975 0 013.429 2.763 13.05 13.05 0 012.222 3.861c.522 1.42.783 2.863.783 4.327 0 1.598-.283 3.118-.849 4.56a12.787 12.787 0 01-2.286 3.829 10.942 10.942 0 01-3.462 2.63c-1.307.643-2.733.965-4.279.965zm-9.178-11.984c0 1.354.217 2.652.653 3.895a11.374 11.374 0 001.927 3.362 9.545 9.545 0 002.907 2.33c1.132.555 2.373.832 3.723.832 1.394 0 2.646-.3 3.757-.899a9.274 9.274 0 002.907-2.396 10.78 10.78 0 001.829-3.329 11.41 11.41 0 00.653-3.795c0-1.353-.229-2.652-.686-3.894a10.438 10.438 0 00-1.894-3.329 9.44 9.44 0 00-2.94-2.33 7.748 7.748 0 00-3.626-.866c-1.393 0-2.656.3-3.788.9a9.251 9.251 0 00-2.907 2.396 11.2 11.2 0 00-1.862 3.362 11.1 11.1 0 00-.653 3.761z" fill="#303030"/><path d="M140.905 23.75h-4.956v-4.19h4.956v.852h-4.216v2.486h4.216v.852zm.038-5.121h-.75a.877.877 0 00-.237-.58c-.152-.168-.431-.3-.836-.397-.405-.104-.984-.168-1.738-.194l-1.433-.058v-3.435h4.956v.851h-4.216v1.83l.769.019c.899.032 1.602.126 2.108.28.507.149.861.365 1.064.649.202.277.307.622.313 1.035zM141 8.42c0 .444-.095.838-.285 1.18-.19.342-.449.616-.778.822a2.692 2.692 0 01-1.14.377v.94h2.108v.85h-4.956v-.85h2.117v-.94a2.736 2.736 0 01-1.149-.386 2.21 2.21 0 01-.778-.833 2.411 2.411 0 01-.276-1.16c0-.51.117-.95.352-1.317.227-.368.534-.651.921-.851.386-.2.819-.3 1.3-.3.494 0 .934.103 1.32.31.386.2.69.486.912.86.221.368.332.8.332 1.297zm-.722 0c0-.317-.079-.594-.237-.833a1.62 1.62 0 00-.646-.561 2.164 2.164 0 00-.959-.203c-.379 0-.705.07-.978.212a1.524 1.524 0 00-.645.571 1.48 1.48 0 00-.228.813c0 .303.079.574.237.813.152.232.367.413.646.542.278.129.601.193.968.193.564 0 1.013-.145 1.349-.435.329-.29.493-.661.493-1.113zM141 2.681c0 .503-.117.949-.351 1.336a2.59 2.59 0 01-.95.91 2.58 2.58 0 01-1.282.328c-.468 0-.895-.106-1.281-.32a2.382 2.382 0 01-.921-.899c-.235-.387-.352-.835-.352-1.345 0-.497.111-.929.333-1.297.215-.374.506-.651.873-.832l.257.832c-.235.13-.415.31-.542.542a1.53 1.53 0 00-.199.774c0 .31.079.594.237.852.159.251.377.451.655.6.273.148.586.222.94.222.349 0 .665-.074.95-.222.278-.155.5-.358.665-.61.164-.258.246-.542.246-.851 0-.2-.034-.39-.104-.571a1.63 1.63 0 00-.275-.484.953.953 0 00-.39-.29l.247-.833c.361.149.659.42.893.813.234.387.351.836.351 1.345z" fill="#08A979"/><path d="M8.688 9.044h1.738c2.399 0 4.344-1.982 4.344-4.427V3.289c0-1.712-1.362-3.1-3.041-3.1-1.68 0-3.041 1.388-3.041 3.1v5.755z" fill="#02C087"/><path d="M14.48 14.946h-1.738c-2.399 0-4.344 1.982-4.344 4.427v1.328c0 1.712 1.362 3.1 3.041 3.1 1.68 0 3.04-1.388 3.04-3.1v-5.755z" fill="#2EEAB1"/><path d="M8.688 9.044v1.77c0 2.445-1.945 4.428-4.344 4.428H3.041c-1.68 0-3.04-1.388-3.04-3.1 0-1.71 1.36-3.098 3.04-3.098h5.647z" fill="#13D99D"/><path d="M14.48 14.946v-1.77c0-2.446 1.945-4.428 4.344-4.428h1.303c1.68 0 3.04 1.388 3.04 3.1 0 1.71-1.36 3.098-3.04 3.098H14.48z" fill="#08A979"/></svg>